<svg width="13" height="12" viewBox="0 0 13 12" fill="none" xmlns="http://www.w3.org/2000/svg">
<g clip-path="url(#clip0_3559_65)">
<path d="M11 10.5L8.757 8.253L11 10.5ZM10 5.25C10 6.37717 9.55223 7.45817 8.7552 8.2552C7.95817 9.05223 6.87717 9.5 5.75 9.5C4.62283 9.5 3.54183 9.05223 2.7448 8.2552C1.94777 7.45817 1.5 6.37717 1.5 5.25C1.5 4.12283 1.94777 3.04183 2.7448 2.2448C3.54183 1.44777 4.62283 1 5.75 1C6.87717 1 7.95817 1.44777 8.7552 2.2448C9.55223 3.04183 10 4.12283 10 5.25V5.25Z" stroke="#C4C4C4" stroke-width="2" stroke-linecap="round"/>
</g>
<defs>
<clipPath id="clip0_3559_65">
<rect width="12" height="12" fill="white" transform="translate(0.5)"/>
</clipPath>
</defs>
</svg>
